<svg xmlns="http://www.w3.org/2000/svg" width="267.308" height="47.758" viewBox="0 0 267.308 47.758">
  <g id="Group_427" data-name="Group 427" transform="translate(-49.586 -35)">
    <path id="Path_4171" data-name="Path 4171" d="M3668.4-3089.58h28.719v6.131h-9.842v19.684H3677.6v-19.684h-9.2Z" transform="translate(-3618.403 3125.675)" fill="#fff"/>
    <path id="Subtraction_12" data-name="Subtraction 12" d="M17.254,27.37c-4.833,0-8.954-.863-11.92-2.494a10.752,10.752,0,0,1-3.742-3.264A9.205,9.205,0,0,1,.006,16.873c-.007-.1,0-1.991,0-2.8,0-.2,0-.345,0-.389s0-.15,0-.318v0c0-.757-.01-2.531,0-2.75a9.037,9.037,0,0,1,1.544-4.7A10.927,10.927,0,0,1,5.285,2.6C8.3.9,12.441,0,17.254,0a25.4,25.4,0,0,1,6.6.833,18.014,18.014,0,0,1,5.226,2.28C32.094,5.1,33.756,7.791,33.756,10.7c0,.146.006.5.015.99.03,1.695.086,4.849-.015,5.412a10.5,10.5,0,0,1-1.849,4.367,12.115,12.115,0,0,1-3.579,3.222A21.475,21.475,0,0,1,17.254,27.37Zm-.16-20.549a6.938,6.938,0,0,0-6.832,7.024,6.938,6.938,0,0,0,6.832,7.024,6.938,6.938,0,0,0,6.832-7.024A6.938,6.938,0,0,0,17.094,6.821Z" transform="translate(123 35)" fill="#fff"/>
    <path id="Union_6" data-name="Union 6" d="M15.425,25.4l.053-.25-.073.249L9.857,7.381H9.208l.046,18.014H.282L0,0H15.324l2.622,7.381,1.37,4.693-.013.043h.025l-.012-.043,1.378-4.693L23.205,0H38.639V25.395H29.41V7.381h-.6l-5.6,18.014-.078-.269.058.269Z" transform="translate(201 35.641)" fill="#fff"/>
    <path id="Subtraction_13" data-name="Subtraction 13" d="M32.527,25.651H22.4L21.116,22.7H10.5l-.723,2.95H0L9.773,0H22.02L32.527,25.651ZM15.335,8.05h0l-2.52,8.9h5.952L15.9,8.05h-.566Z" transform="translate(284 35.384)" fill="#fff"/>
    <path id="Path_4177" data-name="Path 4177" d="M8.8-11.323v1.113H5.339V-.271H4.021V-10.21H.586v-1.113Zm6.075-.2a4.03,4.03,0,0,1,3.435,1.692,6.6,6.6,0,0,1,1.128,4.021,6.28,6.28,0,0,1-1.458,4.431A4.052,4.052,0,0,1,14.879-.059a4.029,4.029,0,0,1-3.428-1.7,6.6,6.6,0,0,1-1.128-4.014A6.244,6.244,0,0,1,11.788-10.2,4.035,4.035,0,0,1,14.879-11.521Zm0,1.077a2.7,2.7,0,0,0-2.4,1.34A6.129,6.129,0,0,0,11.7-5.793a5.635,5.635,0,0,0,1,3.618,2.665,2.665,0,0,0,2.175,1.033,2.693,2.693,0,0,0,2.41-1.348,6.09,6.09,0,0,0,.776-3.3,5.66,5.66,0,0,0-1-3.625A2.688,2.688,0,0,0,14.879-10.444Zm17.853-.879V-.271H31.487v-6.5l.029-3.494h-.256q-.557,2.08-.974,3.406L28.205-.271h-1.67L24.5-6.841q-.227-.71-.542-1.809-.352-1.238-.461-1.611h-.256q-.007.242-.007.513l.037,3V-.271H22.1V-11.323h2.19l1.978,6.511q.146.483.535,1.78.293,1,.476,1.589h.256q.081-.256,1.033-3.34l2.007-6.541Zm7.43,0L43.714-.271H42.352L41.283-3.779h-3.94L36.229-.271H34.954l3.552-11.052ZM41-4.8l-.82-2.688q-.322-1.033-.784-2.834h-.227Q38.792-8.76,38.4-7.5l-.813,2.7Zm6.236-6.526v9.939h5.479V-.271H45.93V-11.323Zm9.093,0V-.271h-1.3V-11.323ZM67.594-8.459l-1.274.33a2.632,2.632,0,0,0-2.688-2.314A2.8,2.8,0,0,0,61.164-9.1a5.937,5.937,0,0,0-.806,3.3,5.585,5.585,0,0,0,1,3.611,2.767,2.767,0,0,0,2.256,1.04,2.41,2.41,0,0,0,2.161-1.194,4.873,4.873,0,0,0,.659-2.439H63.515V-5.837h4.153v5.61h-.916L66.606-2A3.293,3.293,0,0,1,65.258-.5a3.45,3.45,0,0,1-1.743.439,4,4,0,0,1-3.42-1.692,6.674,6.674,0,0,1-1.113-4.028A6.173,6.173,0,0,1,60.475-10.2a4.153,4.153,0,0,1,3.142-1.318,3.949,3.949,0,0,1,2.7.945A4.352,4.352,0,0,1,67.594-8.459Zm11.144-2.864V-.271h-1.3V-5.515H72V-.271H70.7V-11.323H72v4.695h5.435v-4.695Zm10.528,0v1.113H85.8V-.271H84.484V-10.21H81.049v-1.113Zm5.914,0L98.733-.271H97.371L96.3-3.779h-3.94L91.247-.271H89.973l3.552-11.052ZM96.016-4.8,95.2-7.485q-.322-1.033-.784-2.834h-.227q-.374,1.56-.762,2.82L92.61-4.8Zm6.236-6.526v9.939h5.479V-.271h-6.782V-11.323Zm9.093,0v9.939h5.479V-.271h-6.782V-11.323Zm11.554-.2a4.03,4.03,0,0,1,3.435,1.692,6.6,6.6,0,0,1,1.128,4.021A6.28,6.28,0,0,1,126-1.377,4.052,4.052,0,0,1,122.9-.059a4.029,4.029,0,0,1-3.428-1.7,6.6,6.6,0,0,1-1.128-4.014,6.244,6.244,0,0,1,1.465-4.431A4.035,4.035,0,0,1,122.9-11.521Zm0,1.077a2.7,2.7,0,0,0-2.4,1.34,6.129,6.129,0,0,0-.776,3.311,5.635,5.635,0,0,0,1,3.618A2.665,2.665,0,0,0,122.9-1.143a2.693,2.693,0,0,0,2.41-1.348,6.09,6.09,0,0,0,.776-3.3,5.66,5.66,0,0,0-1-3.625A2.688,2.688,0,0,0,122.9-10.444Zm14.6-.879-3.765,6.387V-.271h-1.3V-4.937l-3.691-6.387h1.472l2.534,4.5q.029.059.22.417.117.205.2.352.088-.146.242-.425.132-.234.205-.374l2.527-4.468Zm3.519,0V-.271h-1.3V-11.323Zm11.385,0V-.271h-1.663l-3.464-6.687q-.081-.154-1.575-3.223h-.227q0,.381.037,1.9.022.981.022,1.655V-.271h-1.216V-11.323h2.029l3.164,6.2q.4.762.872,1.809.564,1.245.688,1.5h.234q-.117-3.157-.117-3.625v-5.881Zm3.3,0h3.42a5.052,5.052,0,0,1,4.014,1.531,5.778,5.778,0,0,1,1.223,3.94,5.449,5.449,0,0,1-1.7,4.365,5.551,5.551,0,0,1-3.75,1.216H155.7Zm1.3,1.062v8.928h1.86a3.929,3.929,0,0,0,3.058-1.161,4.8,4.8,0,0,0,1.058-3.344q0-4.424-4-4.424Zm17.977-1.062v7.361A3.7,3.7,0,0,1,173.7-.886a4.221,4.221,0,0,1-2.71.828,4.039,4.039,0,0,1-3.01-1.077,3.855,3.855,0,0,1-1-2.827v-7.361h1.3v7.317q0,2.864,2.732,2.864t2.732-2.864v-7.317Zm10.008,2.432-1.3.388a2.324,2.324,0,0,0-2.344-1.956,2.428,2.428,0,0,0-1.7.549,1.6,1.6,0,0,0-.52,1.238A1.7,1.7,0,0,0,179.7-7.28a4.559,4.559,0,0,0,1.729.725l.476.139a5.274,5.274,0,0,1,2.739,1.362,2.788,2.788,0,0,1,.564,1.846A2.83,2.83,0,0,1,184.092-.82a4.37,4.37,0,0,1-2.7.762,4.323,4.323,0,0,1-2.7-.8,3.71,3.71,0,0,1-1.3-1.978l1.289-.454a2.818,2.818,0,0,0,1.084,1.7,2.713,2.713,0,0,0,1.589.469,2.79,2.79,0,0,0,1.978-.615,1.738,1.738,0,0,0,.527-1.326,1.733,1.733,0,0,0-.549-1.406A5.054,5.054,0,0,0,181.4-5.3l-.439-.132a5.075,5.075,0,0,1-2.563-1.326,2.806,2.806,0,0,1-.571-1.86,2.617,2.617,0,0,1,1.011-2.131,3.8,3.8,0,0,1,2.483-.776A3.517,3.517,0,0,1,184.992-8.892Zm2.823-2.432h3.721q3.794,0,3.794,2.893a2.675,2.675,0,0,1-.667,1.86,3.085,3.085,0,0,1-1.677.923l2.644,5.376h-1.443l-2.432-5.164H189.09V-.271h-1.274Zm1.274,1.047v3.823h2.278Q194-6.453,194-8.416a1.617,1.617,0,0,0-.659-1.443,3.374,3.374,0,0,0-1.875-.417Zm16.622-1.047-3.765,6.387V-.271h-1.3V-4.937l-3.691-6.387h1.472l2.534,4.5q.029.059.22.417.117.205.2.352.088-.146.242-.425.132-.234.205-.374l2.527-4.468Zm9.957,2.966-1.3.352q-.557-2.439-2.681-2.439A2.779,2.779,0,0,0,209.246-9.1a5.917,5.917,0,0,0-.813,3.3,5.49,5.49,0,0,0,1.047,3.611,2.761,2.761,0,0,0,2.212,1.04A2.72,2.72,0,0,0,214.5-3.618l1.245.425a3.892,3.892,0,0,1-4.065,3.135,4.1,4.1,0,0,1-3.464-1.7,6.483,6.483,0,0,1-1.157-4.014,6.2,6.2,0,0,1,1.487-4.431,4.129,4.129,0,0,1,3.135-1.318,3.961,3.961,0,0,1,2.725.952A4.252,4.252,0,0,1,215.669-8.357Zm6.339-3.164a4.03,4.03,0,0,1,3.435,1.692,6.6,6.6,0,0,1,1.128,4.021,6.28,6.28,0,0,1-1.458,4.431,4.052,4.052,0,0,1-3.105,1.318,4.029,4.029,0,0,1-3.428-1.7,6.6,6.6,0,0,1-1.128-4.014,6.244,6.244,0,0,1,1.465-4.431A4.035,4.035,0,0,1,222.008-11.521Zm0,1.077a2.7,2.7,0,0,0-2.4,1.34,6.129,6.129,0,0,0-.776,3.311,5.635,5.635,0,0,0,1,3.618,2.665,2.665,0,0,0,2.175,1.033,2.693,2.693,0,0,0,2.41-1.348,6.09,6.09,0,0,0,.776-3.3,5.66,5.66,0,0,0-1-3.625A2.688,2.688,0,0,0,222.008-10.444Zm8.4,8.54V-.271H228.78V-1.9Zm4.032.044V-.271l-.872,2.029H232.9l.784-2.029h-.872V-1.86Zm4.149-9.463v9.939h5.479V-.271H237.29V-11.323Zm14.491,0v1.113H249.62V-.271H248.3V-10.21h-3.435v-1.113Zm2.311,0h3.42a5.052,5.052,0,0,1,4.014,1.531,5.778,5.778,0,0,1,1.223,3.94,5.449,5.449,0,0,1-1.7,4.365A5.551,5.551,0,0,1,258.6-.271H255.4Zm1.3,1.062v8.928h1.86a3.929,3.929,0,0,0,3.058-1.161,4.8,4.8,0,0,0,1.058-3.344q0-4.424-4-4.424ZM267.894-1.9V-.271H266.26V-1.9Z" transform="translate(49 81)" fill="#fff"/>
  </g>
</svg>
